# xmcd
#
# Track frame offsets:
#	150
#	15715
#	34712
#	49797
#	64824
#	80060
#	99335
#	112945
#	124166
#	142252
#	160041
#
# Disc length: 2349 seconds
#
# Revision: 0
# Processed by: cddbd v1.5.2PL0 Copyright (c) Steve Scherf et al.
# Submitted via: audiograbber 1.83.01
#
DISCID=8f092b0b
DTITLE=Paul Mateki - Acroos The Miles
DYEAR=1900
DGENRE=Country
TTITLE0=Acroos The Miles
TTITLE1=Expensive Toys
TTITLE2=Zevenbergen (Seven Mountain Memory)
TTITLE3=Between Dallas And Denver
TTITLE4=I'm Right, You're Wrong, I Win
TTITLE5=Love Desperado
TTITLE6=God Loves You So Do I
TTITLE7=Rusty Nail
TTITLE8=What Goes Around
TTITLE9=Feelin' Fine In Venray
TTITLE10=The Tomorrow She Dreaded
EXTD=
EXTT0=
EXTT1=
EXTT2=
EXTT3=
EXTT4=
EXTT5=
EXTT6=
EXTT7=
EXTT8=
EXTT9=
EXTT10=
PLAYORDER=
